# Exported from ProBuilder
# http://www.procore3d.com/probuilder
# 6/16/2018 6:42:22 PM

mtllib ./Projector.mtl
o Projector

g New Game Object
v -0.1 0.2 -0.4
v -0.2 0.2 -0.3
v -0.2 0.2 0.09999999
v -0.1 0.2 0.2
v 0.3 0.2 0.2
v 0.4 0.2 0.09999999
v 0.4 0.2 -0.3
v 0.3 0.2 -0.4
v 0.3090475 0.4 0.04477885
v -0.04477883 0.4 0.1155442
v 0.2382822 0.4 0.1155442
v -0.1155441 0.4 0.04477885
v -0.04477883 0.4 -0.3090476
v 0.3090475 0.4 -0.2382823
v 0.2382822 0.4 -0.3090476
v -0.1155441 0.4 -0.2382823
v -0.2 0.2 0.09999999
v -0.2 0.2 -0.3
v -0.2 0.35 0.09999999
v -0.2 0.35 -0.3
v -0.2 0.2 -0.3
v -0.1 0.2 -0.4
v -0.2 0.35 -0.3
v -0.1 0.35 -0.4
v -0.1 0.2 -0.4
v 0.3 0.2 -0.4
v -0.1 0.35 -0.4
v 0.3 0.35 -0.4
v 0.3 0.2 -0.4
v 0.4 0.2 -0.3
v 0.3 0.35 -0.4
v 0.4 0.35 -0.3
v 0.4 0.2 -0.3
v 0.4 0.2 0.09999999
v 0.4 0.35 -0.3
v 0.4 0.35 0.09999999
v -0.1 0.2 0.2
v -0.2 0.2 0.09999999
v -0.1 0.35 0.2
v -0.2 0.35 0.09999999
v 0.3 0.2 0.2
v -0.1 0.2 0.2
v 0.3 0.35 0.2
v -0.1 0.35 0.2
v 0.4 0.2 0.09999999
v 0.3 0.2 0.2
v 0.4 0.35 0.09999999
v 0.3 0.35 0.2
v -0.2 0.35 0.09999999
v -0.2 0.35 -0.3
v -0.1155441 0.4 0.04477885
v -0.1155441 0.4 -0.2382823
v -0.2 0.35 -0.3
v -0.1 0.35 -0.4
v -0.1155441 0.4 -0.2382823
v -0.04477883 0.4 -0.3090476
v -0.1 0.35 -0.4
v 0.3 0.35 -0.4
v -0.04477883 0.4 -0.3090476
v 0.2382822 0.4 -0.3090476
v 0.3 0.35 -0.4
v 0.4 0.35 -0.3
v 0.2382822 0.4 -0.3090476
v 0.3090475 0.4 -0.2382823
v 0.4 0.35 -0.3
v 0.4 0.35 0.09999999
v 0.3090475 0.4 -0.2382823
v 0.3090475 0.4 0.04477885
v -0.1 0.35 0.2
v -0.2 0.35 0.09999999
v -0.04477883 0.4 0.1155442
v -0.1155441 0.4 0.04477885
v 0.3 0.35 0.2
v -0.1 0.35 0.2
v 0.2382822 0.4 0.1155442
v -0.04477883 0.4 0.1155442
v 0.4 0.35 0.09999999
v 0.3 0.35 0.2
v 0.3090475 0.4 0.04477885
v 0.2382822 0.4 0.1155442

vn 0 -1 0
vn 0 -1 0
vn 0 -1 0
vn 0 -1 0
vn 0 -1 0
vn 0 -1 0
vn 0 -1 0
vn 0 -1 0
vn 0 1 0
vn 0 1 0
vn 0 1 0
vn 0 1 0
vn 0 1 0
vn 0 0.9999999 0
vn 0 1 0
vn 0 1 0
vn -1 0 0
vn -1 0 0
vn -1 0 0
vn -1 0 0
vn -0.7071068 -1.756119E-08 -0.7071068
vn -0.7071068 0 -0.7071068
vn -0.7071068 -3.512239E-08 -0.7071068
vn -0.7071068 -1.756119E-08 -0.7071068
vn 0 0 -1
vn 0 0 -1
vn 0 0 -1
vn 0 0 -1
vn 0.7071068 -2.195149E-08 -0.7071068
vn 0.7071068 -4.390298E-08 -0.7071068
vn 0.7071068 0 -0.7071068
vn 0.7071068 -2.195149E-08 -0.7071068
vn 1 0 0
vn 1 0 0
vn 1 0 0
vn 1 0 0
vn -0.7071069 0 0.7071067
vn -0.7071069 0 0.7071067
vn -0.7071069 0 0.7071067
vn -0.7071069 0 0.7071067
vn 0 0 1
vn 0 0 1
vn 0 0 1
vn 0 0 1
vn 0.7071069 0 0.7071067
vn 0.7071069 0 0.7071067
vn 0.7071069 0 0.7071067
vn 0.7071069 0 0.7071067
vn -0.509441 0.8605056 0
vn -0.509441 0.8605056 0
vn -0.5094409 0.8605056 0
vn -0.509441 0.8605056 0
vn -0.3079229 0.9002039 -0.3079229
vn -0.3079229 0.9002039 -0.307923
vn -0.3079229 0.9002038 -0.3079229
vn -0.3079229 0.9002039 -0.3079229
vn 0 0.8763127 -0.4817425
vn 0 0.8763129 -0.4817425
vn 0 0.8763128 -0.4817425
vn 0 0.8763127 -0.4817425
vn 0.2971762 0.9073988 -0.2971762
vn 0.2971762 0.9073989 -0.2971762
vn 0.2971762 0.9073988 -0.2971762
vn 0.2971762 0.9073988 -0.2971762
vn 0.4817423 0.876313 0
vn 0.4817423 0.876313 0
vn 0.4817423 0.876313 0
vn 0.4817423 0.876313 0
vn -0.3193754 0.8921877 0.3193752
vn -0.3193753 0.8921877 0.3193752
vn -0.3193755 0.8921877 0.3193752
vn -0.3193754 0.8921877 0.3193752
vn 0 0.8605055 0.5094412
vn 0 0.8605055 0.5094411
vn 0 0.8605055 0.5094412
vn 0 0.8605055 0.5094412
vn 0.3079229 0.9002039 0.3079228
vn 0.3079229 0.9002038 0.3079228
vn 0.3079229 0.9002038 0.3079228
vn 0.3079229 0.9002039 0.3079228

vt 0 0
vt -0.1 0.1
vt -0.1 0.5
vt 0 0.6
vt 0.4 0.6
vt 0.5 0.5
vt 0.5 0.1
vt 0.4 0
vt -0.4090475 0.4447789
vt -0.05522117 0.5155442
vt -0.3382822 0.5155442
vt 0.0155441 0.4447789
vt -0.05522117 0.09095243
vt -0.4090475 0.1617177
vt -0.3382822 0.09095243
vt 0.0155441 0.1617177
vt 0.5 4.470348E-08
vt 0.1 4.470348E-08
vt 0.5 0.15
vt 0.09999999 0.15
vt 0.1414214 4.470348E-08
vt 0 4.470348E-08
vt 0.1414214 0.15
vt 0 0.15
vt 0 4.470348E-08
vt -0.4 4.470348E-08
vt 0 0.15
vt -0.4 0.15
vt -0.2828427 4.470348E-08
vt -0.4242641 4.470348E-08
vt -0.2828427 0.15
vt -0.4242641 0.15
vt -0.1 4.470348E-08
vt -0.5 4.470348E-08
vt -0.09999999 0.15
vt -0.5 0.15
vt 0.4242642 4.470348E-08
vt 0.2828428 4.470348E-08
vt 0.4242642 0.15
vt 0.2828428 0.15
vt 0.4 4.470348E-08
vt 0 4.470348E-08
vt 0.4 0.15
vt 0 0.15
vt -5.960464E-08 4.470348E-08
vt -0.1414214 4.470348E-08
vt -5.960464E-08 0.15
vt -0.1414214 0.15
vt 0.009634426 0.5
vt 0.009634426 0.09999999
vt -0.08851241 0.4447789
vt -0.08851241 0.1617177
vt 0.04607046 0.1488095
vt -0.04854728 0.04370245
vt -0.05002223 0.2136791
vt -0.1169787 0.1392998
vt 0 0.07226137
vt -0.4 0.07226137
vt -0.05522117 0.1760513
vt -0.3382822 0.1760513
vt -0.3334474 0.07935932
vt -0.4284806 0.1840908
vt -0.2592331 0.1746151
vt -0.3264836 0.2487287
vt -0.3658952 0.09999999
vt -0.3658952 0.5
vt -0.2621052 0.1617177
vt -0.2621052 0.4447789
vt -0.05055389 0.5234734
vt 0.04359565 0.4179468
vt -0.1193957 0.4343501
vt -0.0527705 0.3596738
vt -0.4 0.4398872
vt 0 0.4398872
vt -0.3382822 0.3417404
vt -0.05522117 0.3417404
vt -0.4245414 0.3821739
vt -0.3299237 0.4872809
vt -0.3223018 0.3241326
vt -0.2553453 0.3985119

g New Game Object_0
usemtl Default_Prototype
f 19/19/19 20/20/20 18/18/18 17/17/17
f 23/23/23 24/24/24 22/22/22 21/21/21
f 27/27/27 28/28/28 26/26/26 25/25/25
f 31/31/31 32/32/32 30/30/30 29/29/29
f 35/35/35 36/36/36 34/34/34 33/33/33
f 39/39/39 40/40/40 38/38/38 37/37/37
f 43/43/43 44/44/44 42/42/42 41/41/41
f 47/47/47 48/48/48 46/46/46 45/45/45
f 51/51/51 52/52/52 50/50/50 49/49/49
f 55/55/55 56/56/56 54/54/54 53/53/53
f 59/59/59 60/60/60 58/58/58 57/57/57
f 63/63/63 64/64/64 62/62/62 61/61/61
f 67/67/67 68/68/68 66/66/66 65/65/65
f 71/71/71 72/72/72 70/70/70 69/69/69
f 75/75/75 76/76/76 74/74/74 73/73/73
f 79/79/79 80/80/80 78/78/78 77/77/77

g New Game Object_1
usemtl Default_Prototype
f 5/5/5 4/4/4 6/6/6
f 6/6/6 4/4/4 3/3/3
f 1/1/1 6/6/6 3/3/3
f 7/7/7 6/6/6 1/1/1
f 7/7/7 1/1/1 8/8/8
f 3/3/3 2/2/2 1/1/1
f 13/13/13 16/16/16 12/12/12
f 15/15/15 13/13/13 14/14/14
f 13/13/13 9/9/9 14/14/14
f 12/12/12 9/9/9 13/13/13
f 12/12/12 10/10/10 9/9/9
f 9/9/9 10/10/10 11/11/11

